<svg width="35" height="50" viewBox="0 0 35 50" fill="none" xmlns="http://www.w3.org/2000/svg">
<path d="M28.0943 16.495C22.5416 9.83799 20.0869 4.17627 18.6811 0.798199C18.236 -0.266066 16.7596 -0.266066 16.3189 0.798199C14.9131 4.17627 12.4584 9.83799 6.90569 16.495C3.42861 20.6659 0 26.7714 0 32.7865C0 43.05 7.57555 50 17.5 50C27.4245 50 35 43.0457 35 32.7865C35 26.5345 31.5714 20.6659 28.0943 16.495Z" fill="#FF2156"/>
<path d="M10.9359 32.728H6.27987L5.47987 35H3.57587L7.55988 23.864H9.67188L13.6559 35H11.7359L10.9359 32.728ZM10.4239 31.24L8.61587 26.072L6.79187 31.24H10.4239ZM19.9801 29.288C20.5775 29.3947 21.0841 29.7093 21.5001 30.232C21.9161 30.7547 22.1241 31.3467 22.1241 32.008C22.1241 32.5733 21.9748 33.0853 21.6761 33.544C21.3881 33.992 20.9668 34.3493 20.4121 34.616C19.8575 34.872 19.2121 35 18.4761 35H14.0281V23.88H18.2681C19.0255 23.88 19.6761 24.008 20.2201 24.264C20.7641 24.52 21.1748 24.8667 21.4521 25.304C21.7295 25.7307 21.8681 26.2107 21.8681 26.744C21.8681 27.384 21.6975 27.9173 21.3561 28.344C21.0148 28.7707 20.5561 29.0853 19.9801 29.288ZM15.8521 28.552H18.1081C18.7055 28.552 19.1695 28.4187 19.5001 28.152C19.8415 27.8747 20.0121 27.48 20.0121 26.968C20.0121 26.4667 19.8415 26.0773 19.5001 25.8C19.1695 25.512 18.7055 25.368 18.1081 25.368H15.8521V28.552ZM18.3161 33.512C18.9348 33.512 19.4201 33.3627 19.7721 33.064C20.1241 32.7653 20.3001 32.3493 20.3001 31.816C20.3001 31.272 20.1135 30.84 19.7401 30.52C19.3668 30.2 18.8708 30.04 18.2521 30.04H15.8521V33.512H18.3161ZM31.3383 29.992H28.1062V33.304H26.4102V29.992H23.1782V28.456H26.4102V25.144H28.1062V28.456H31.3383V29.992Z" fill="white"/>
</svg>
