<svg width="31" height="36" viewBox="0 0 31 36" fill="none" xmlns="http://www.w3.org/2000/svg">
<path d="M30.9091 18.8727C30.9112 17.8657 30.6306 16.8783 30.0994 16.0228C29.5681 15.1672 28.8075 14.4779 27.904 14.0332C27.0004 13.5885 25.9903 13.4062 24.9883 13.5071C23.9863 13.6079 23.0327 13.9879 22.236 14.6038C21.4392 15.2196 20.8312 16.0467 20.4811 16.991C20.1311 17.9352 20.0529 18.9587 20.2557 19.9451C20.4584 20.9316 20.9338 21.8413 21.6278 22.571C22.3219 23.3007 23.2068 23.821 24.1818 24.0727V25.6C24.1818 27.389 23.4712 29.1047 22.2062 30.3698C20.9411 31.6348 19.2254 32.3455 17.4364 32.3455C15.6474 32.3455 13.9317 31.6348 12.6666 30.3698C11.4016 29.1047 10.6909 27.389 10.6909 25.6C10.7586 23.994 11.1511 22.4184 11.8449 20.9683C12.5387 19.5183 13.5192 18.224 14.7273 17.1636H14.5455C15.8313 16.3248 16.8915 15.1833 17.6333 13.8392C18.3751 12.4951 18.7757 10.9895 18.8 9.45455V4.03636C18.8 2.96585 18.3748 1.93919 17.6178 1.18222C16.8608 0.425258 15.8342 0 14.7637 0H12.7273C12.3705 5.31728e-09 12.0282 0.141753 11.7759 0.394074C11.5236 0.646396 11.3819 0.988618 11.3819 1.34545C11.3819 1.70229 11.5236 2.04451 11.7759 2.29683C12.0282 2.54916 12.3705 2.69091 12.7273 2.69091H14.7273C15.0841 2.69091 15.4264 2.83266 15.6787 3.08498C15.931 3.33731 16.0728 3.67953 16.0728 4.03636V9.45455C16.0728 11.2324 15.369 12.9381 14.1153 14.1986C12.8615 15.4592 11.1597 16.1722 9.38185 16.1818V17.1636V16.1818C8.49841 16.1866 7.62267 16.0173 6.80465 15.6837C5.98663 15.35 5.24233 14.8585 4.61427 14.2372C3.98621 13.6159 3.48667 12.8769 3.14419 12.0626C2.8017 11.2482 2.62298 10.3744 2.61821 9.49091V4.03636C2.61821 3.67953 2.75997 3.33731 3.01229 3.08498C3.26461 2.83266 3.60683 2.69091 3.96367 2.69091H5.85458C6.21141 2.69091 6.55364 2.54916 6.80596 2.29683C7.05828 2.04451 7.20003 1.70229 7.20003 1.34545C7.20003 0.988618 7.05828 0.646396 6.80596 0.394074C6.55364 0.141753 6.21141 0 5.85458 0H3.96367C2.90581 0.0190636 1.89773 0.452723 1.15643 1.20763C0.41512 1.96254 -0.000140091 2.97834 3.16662e-05 4.03636V9.45455C-0.00389698 10.9668 0.357782 12.4575 1.05426 13.7998C1.75073 15.1421 2.76135 16.2962 4.00003 17.1636C5.20148 18.2272 6.17524 19.5229 6.86268 20.9728C7.55011 22.4227 7.937 23.9967 8.00003 25.6C8.00003 26.8392 8.24411 28.0663 8.71833 29.2111C9.19255 30.356 9.88763 31.3963 10.7639 32.2725C11.6401 33.1488 12.6804 33.8438 13.8253 34.3181C14.9701 34.7923 16.1972 35.0364 17.4364 35.0364C18.6756 35.0364 19.9027 34.7923 21.0475 34.3181C22.1924 33.8438 23.2327 33.1488 24.1089 32.2725C24.9852 31.3963 25.6802 30.356 26.1545 29.2111C26.6287 28.0663 26.8728 26.8392 26.8728 25.6V24.0727C28.0262 23.7749 29.0482 23.1028 29.7787 22.1618C30.5091 21.2208 30.9067 20.064 30.9091 18.8727ZM25.4546 21.5636C24.9224 21.5636 24.4021 21.4058 23.9596 21.1101C23.5171 20.8145 23.1722 20.3942 22.9685 19.9025C22.7648 19.4108 22.7115 18.8697 22.8154 18.3478C22.9192 17.8258 23.1755 17.3463 23.5518 16.97C23.9281 16.5936 24.4076 16.3374 24.9296 16.2335C25.4516 16.1297 25.9926 16.183 26.4843 16.3867C26.976 16.5903 27.3963 16.9352 27.692 17.3777C27.9877 17.8203 28.1455 18.3405 28.1455 18.8727C28.1455 19.2261 28.0759 19.576 27.9407 19.9025C27.8054 20.229 27.6072 20.5256 27.3573 20.7755C27.1075 21.0254 26.8108 21.2236 26.4843 21.3588C26.1579 21.494 25.808 21.5636 25.4546 21.5636Z" fill="#FF2156"/>
</svg>
