<svg width="281" height="266" viewBox="0 0 281 266" fill="none" xmlns="http://www.w3.org/2000/svg">
<path d="M3.70634 169.272C5.45624 170.035 9.72601 169.94 9.73237 169.94C9.73873 169.94 8.81606 167.14 8.73333 166.975C7.79157 165.008 4.83264 161.769 2.4146 162.1C2.01561 162.165 1.63478 162.314 1.29694 162.535C0.959104 162.757 0.671842 163.048 0.453892 163.389C0.235942 163.729 0.0921989 164.111 0.0320357 164.511C-0.0281276 164.911 -0.00335931 165.319 0.104725 165.708C0.505612 167.382 2.21733 168.623 3.70634 169.272Z" fill="#263238"/>
<path d="M5.18254 181.674C6.99607 181.941 10.8077 180.834 11.1131 180.745C11.7404 182.927 12.5121 185.066 13.423 187.146C13.9511 188.355 14.5175 189.564 15.0965 190.767C14.7529 190.258 14.4602 189.806 14.3838 189.749C12.9648 188.101 9.24867 185.766 7.0088 186.714C6.64176 186.883 6.31434 187.127 6.04777 187.43C5.7812 187.734 5.58143 188.09 5.46143 188.476C5.34142 188.862 5.30387 189.269 5.35119 189.67C5.39852 190.071 5.52967 190.458 5.73614 190.805C6.56337 192.313 8.54871 193.058 10.1523 193.293C11.7558 193.529 15.052 192.657 15.9174 192.409C16.1465 192.867 16.3692 193.331 16.5983 193.79C17.6991 195.985 18.8127 198.174 19.8372 200.356C20.1999 201.126 20.5244 201.896 20.8553 202.666C20.5499 202.208 20.2826 201.833 20.219 201.782C18.7936 200.134 15.0838 197.792 12.8376 198.747C12.4698 198.915 12.1417 199.159 11.8746 199.462C11.6074 199.766 11.4073 200.122 11.2872 200.508C11.1671 200.894 11.1297 201.301 11.1776 201.703C11.2255 202.104 11.3574 202.491 11.5649 202.838C12.3921 204.346 14.3711 205.091 15.981 205.326C17.5909 205.562 20.5626 204.766 21.5871 204.486C21.9052 205.282 22.2234 206.077 22.4907 206.866C22.6625 207.407 22.8661 207.916 23.0061 208.47C23.1461 209.023 23.3052 209.558 23.4579 210.092C23.706 211.136 23.9733 212.205 24.1897 213.223C24.3424 213.936 24.4824 214.61 24.6224 215.297C24.2724 214.528 23.5533 213.039 23.477 212.918C22.3189 211.079 19.0227 208.202 16.6428 208.801C16.2511 208.908 15.8866 209.098 15.5732 209.356C15.2598 209.615 15.0046 209.937 14.8243 210.301C14.6441 210.665 14.5428 211.063 14.5272 211.469C14.5116 211.875 14.582 212.28 14.7338 212.657C15.3192 214.267 17.1646 215.304 18.7172 215.781C20.429 216.303 24.2151 215.826 24.686 215.781C24.9151 216.914 25.1251 218.015 25.3223 219.058C25.9587 222.673 26.3532 225.708 26.595 227.833C26.6395 228.209 26.6713 228.546 26.7095 228.864H19.4108L20.3017 246.198H36.3626L37.2471 228.864H30.4257C30.4766 228.762 30.5211 228.66 30.572 228.552C31.5138 226.599 32.8119 223.799 34.2118 220.363C34.6573 219.281 35.1154 218.116 35.5672 216.914C36.0254 217.009 39.7733 217.773 41.5232 217.378C43.1013 217.016 45.023 216.106 45.7294 214.553C45.9086 214.191 46.0095 213.795 46.0254 213.391C46.0414 212.987 45.972 212.584 45.822 212.209C45.6719 211.834 45.4444 211.495 45.1543 211.213C44.8643 210.932 44.5181 210.715 44.1385 210.576C41.835 209.8 38.3098 212.421 37.018 214.171C36.9417 214.273 36.2417 215.482 35.8154 216.258C35.9999 215.762 36.1781 215.291 36.3626 214.782C36.7317 213.777 37.0689 212.765 37.438 211.677L37.9216 210.06C38.0934 209.526 38.208 208.941 38.3543 208.374C38.6661 207.057 38.9207 205.708 39.1434 204.34C40.0279 204.664 43.165 205.753 44.794 205.613C46.423 205.473 48.4465 204.906 49.3819 203.468C49.6145 203.137 49.7747 202.76 49.8521 202.363C49.9296 201.966 49.9224 201.556 49.8312 201.162C49.7399 200.768 49.5666 200.397 49.3226 200.074C49.0785 199.751 48.7692 199.483 48.4147 199.287C46.2512 198.174 42.3696 200.229 40.8296 201.763C40.7342 201.858 39.7542 203.086 39.2261 203.767C39.3534 202.946 39.487 202.125 39.5952 201.292C39.8942 198.874 40.1233 196.424 40.3588 193.974C40.4351 193.23 40.5115 192.485 40.5942 191.734C40.906 191.855 44.6094 193.23 46.4293 193.102C48.052 192.988 50.0818 192.396 51.0236 190.958C51.2572 190.626 51.418 190.248 51.4956 189.849C51.5732 189.45 51.5658 189.039 51.474 188.644C51.3821 188.248 51.2078 187.876 50.9624 187.552C50.7171 187.228 50.4062 186.96 50.05 186.765C47.8865 185.651 44.0113 187.706 42.4714 189.24C42.3505 189.354 40.9442 191.117 40.6069 191.588C40.7787 189.94 40.9696 188.304 41.2432 186.701C41.5728 184.528 42.0425 182.379 42.6495 180.268C42.7959 180.325 46.652 181.782 48.5228 181.648C50.1391 181.534 52.169 180.942 53.1108 179.504C53.3434 179.173 53.5036 178.796 53.581 178.399C53.6584 178.001 53.6513 177.592 53.56 177.198C53.4688 176.803 53.2955 176.433 53.0514 176.11C52.8074 175.787 52.498 175.519 52.1436 175.323C49.98 174.21 46.0984 176.265 44.5585 177.799C44.4376 177.92 42.9232 179.816 42.6495 180.185C42.6877 180.058 42.7132 179.93 42.7514 179.809C43.4173 177.71 44.2691 175.674 45.2967 173.726C45.8503 172.638 46.4421 171.639 47.0338 170.672C47.7274 171.015 50.9027 172.581 52.5953 172.625C54.288 172.67 56.3051 172.326 57.3933 170.996C57.6601 170.693 57.86 170.336 57.9801 169.95C58.1002 169.564 58.1377 169.157 58.0903 168.756C58.0429 168.354 57.9116 167.967 57.7049 167.62C57.4982 167.273 57.2208 166.972 56.8906 166.739C54.8607 165.39 50.7818 167.007 49.0828 168.362C48.9874 168.438 48.1283 169.291 47.5174 169.921C47.7911 169.488 48.0647 169.043 48.3383 168.648C49.3564 167.115 50.3873 165.778 51.3036 164.595C51.8317 163.927 52.3217 163.322 52.7862 162.788C53.6453 162.788 57.0878 162.667 58.5959 161.96C60.104 161.254 61.7776 159.981 62.1021 158.302C62.1986 157.909 62.2114 157.5 62.1398 157.101C62.0681 156.703 61.9136 156.324 61.6863 155.99C61.4589 155.655 61.1637 155.372 60.8199 155.158C60.4761 154.945 60.0913 154.806 59.6904 154.751C57.2724 154.49 54.3962 157.812 53.5117 159.797C53.4353 159.969 52.5444 162.788 52.589 162.788H52.6399C52.1817 163.309 51.6981 163.869 51.1827 164.493C50.2346 165.658 49.1783 166.981 48.122 168.502C46.9614 170.121 45.8989 171.808 44.9403 173.554C43.8555 175.497 42.9462 177.533 42.2232 179.638C42.2232 179.638 42.2232 179.689 42.2232 179.714C42.2232 179.001 42.2232 177.003 42.185 176.851C41.905 174.693 40.0979 170.697 37.7307 170.252C37.331 170.189 36.9225 170.211 36.5319 170.316C36.1413 170.422 35.7773 170.609 35.4638 170.865C35.1503 171.12 34.8943 171.439 34.7126 171.801C34.5308 172.163 34.4274 172.558 34.4091 172.963C34.2691 174.674 35.5099 176.386 36.719 177.468C38.0871 178.69 41.8796 179.873 42.1787 179.962C41.4995 182.131 40.9639 184.341 40.5751 186.58C40.346 187.853 40.1488 189.202 39.977 190.525C39.977 189.889 39.977 189.354 39.9451 189.253C39.6652 187.095 37.858 183.099 35.4908 182.654C35.0913 182.592 34.6832 182.615 34.293 182.72C33.9027 182.826 33.5392 183.013 33.2259 183.269C32.9127 183.525 32.6567 183.843 32.4746 184.204C32.2926 184.565 32.1885 184.961 32.1692 185.365C32.0292 187.076 33.2701 188.788 34.4854 189.87C35.7008 190.952 38.9397 192.04 39.7797 192.313C39.7161 192.822 39.6461 193.331 39.5888 193.84C39.2961 196.284 39.0161 198.721 38.6661 201.107C38.5452 201.947 38.3925 202.768 38.2398 203.595C38.2398 203.048 38.2398 202.584 38.2398 202.514C37.9598 200.356 36.1526 196.36 33.7855 195.915C33.3856 195.853 32.9771 195.876 32.5866 195.982C32.196 196.087 31.8321 196.274 31.5183 196.53C31.2046 196.785 30.948 197.104 30.7653 197.465C30.5825 197.826 30.4777 198.222 30.4575 198.626C30.3175 200.337 31.5647 202.049 32.7737 203.131C33.9827 204.213 36.7762 205.218 37.7689 205.549C37.5907 206.389 37.4126 207.229 37.2026 208.037C37.0499 208.584 36.9353 209.119 36.7508 209.66C36.5662 210.201 36.4008 210.735 36.2353 211.263C35.8663 212.269 35.4972 213.306 35.1154 214.279C34.8545 214.954 34.5936 215.597 34.3327 216.239C34.4664 215.406 34.6891 213.77 34.6891 213.63C34.665 211.717 34.1502 209.841 33.1937 208.183C33.2011 207.97 33.1861 207.757 33.1492 207.547C33.0993 207.146 32.9654 206.76 32.7563 206.414C32.5472 206.068 32.2675 205.77 31.9354 205.539C31.6034 205.309 31.2265 205.151 30.8293 205.076C30.4321 205.001 30.0236 205.01 29.6303 205.104C27.2758 205.74 25.8123 209.863 25.6723 212.033C25.6723 212.16 25.7487 213.56 25.8187 214.438C25.6978 213.929 25.5896 213.427 25.4623 212.905C25.2141 211.861 24.9405 210.83 24.6415 209.723C24.4824 209.189 24.3233 208.654 24.1578 208.113C23.9924 207.572 23.776 207.019 23.5915 206.465C23.1206 205.193 22.5925 203.92 22.0261 202.647C22.9361 202.431 26.1559 201.61 27.454 200.617C28.7521 199.625 30.133 198.028 30.133 196.309C30.1432 195.906 30.0683 195.504 29.9133 195.131C29.7583 194.758 29.5266 194.421 29.2332 194.143C28.9398 193.866 28.5912 193.653 28.2102 193.518C27.8291 193.384 27.4241 193.331 27.0213 193.363C24.5969 193.624 22.497 197.48 22.058 199.612C22.058 199.746 21.8862 201.305 21.8289 202.157C21.4789 201.4 21.1416 200.643 20.7662 199.892C19.6845 197.709 18.52 195.539 17.3682 193.37L16.3246 191.372C16.6555 191.295 20.5053 190.404 21.9561 189.291C23.2288 188.304 24.6096 186.688 24.5969 184.97C24.608 184.566 24.5339 184.163 24.3793 183.789C24.2247 183.416 23.9931 183.078 23.6996 182.8C23.406 182.521 23.0572 182.308 22.6757 182.173C22.2942 182.038 21.8886 181.985 21.4853 182.018C19.0609 182.278 16.961 186.135 16.5219 188.266C16.5219 188.425 16.2865 190.678 16.261 191.251C15.5038 189.781 14.7529 188.311 14.0784 186.835C13.1455 184.844 12.3441 182.795 11.6794 180.7C11.8258 180.662 15.8538 179.752 17.3364 178.613C18.6091 177.62 19.9899 176.004 19.9772 174.286C19.9873 173.882 19.9124 173.48 19.7575 173.107C19.6026 172.733 19.3709 172.396 19.0776 172.118C18.7844 171.84 18.4359 171.626 18.0549 171.491C17.6738 171.356 17.2686 171.302 16.8655 171.334C14.4475 171.601 12.3476 175.457 11.9085 177.582C11.8703 177.754 11.654 180.172 11.6476 180.611C11.6094 180.49 11.5585 180.369 11.5204 180.249C10.9195 178.13 10.5085 175.962 10.2922 173.771C10.1523 172.562 10.095 171.397 10.0568 170.265C10.8268 170.169 14.3266 169.705 15.7838 168.826C17.241 167.948 18.7109 166.529 18.889 164.818C18.9436 164.418 18.9137 164.012 18.8015 163.625C18.6893 163.238 18.4972 162.879 18.2375 162.57C17.9779 162.262 17.6565 162.012 17.2942 161.836C16.9318 161.659 16.5365 161.561 16.1337 161.547C13.6966 161.547 11.1895 165.142 10.515 167.21C10.4768 167.325 10.235 168.483 10.0695 169.374C10.0695 168.858 10.0695 168.33 10.0695 167.84C10.0695 166.001 10.1904 164.315 10.305 162.826C10.3813 161.973 10.4641 161.21 10.5468 160.497C11.2531 160.013 14.0657 158.022 14.9311 156.603C15.7965 155.184 16.471 153.217 15.8347 151.614C15.6988 151.233 15.4845 150.885 15.2055 150.593C14.9265 150.3 14.5892 150.07 14.2154 149.916C13.8415 149.763 13.4396 149.689 13.0356 149.701C12.6316 149.713 12.2346 149.81 11.8703 149.985C9.70683 151.105 9.1405 155.457 9.49684 157.621C9.49684 157.805 10.3432 160.65 10.3813 160.624H10.4259C10.3304 161.305 10.235 162.043 10.1523 162.851C9.99954 164.347 9.84682 166.033 9.80228 167.878C9.73644 169.869 9.78531 171.862 9.94863 173.847C10.1048 176.059 10.4583 178.252 11.0049 180.401C11.0077 180.427 11.0077 180.452 11.0049 180.478C10.6231 179.873 9.49684 178.225 9.39503 178.11C7.97602 176.469 4.25986 174.127 2.01998 175.075C1.65275 175.245 1.32522 175.49 1.05861 175.794C0.791998 176.098 0.592239 176.455 0.472269 176.841C0.352299 177.227 0.314791 177.635 0.362173 178.036C0.409556 178.438 0.540772 178.825 0.747328 179.173C1.59364 180.669 3.57899 181.413 5.18254 181.674ZM29.3248 213.554C30.5975 214.903 33.7791 216.481 34.1736 216.685C33.7409 217.754 33.3082 218.791 32.901 219.758C31.4374 223.124 30.0948 225.873 29.1276 227.782C28.9303 228.164 28.7585 228.508 28.5931 228.819H28.4149C28.364 228.45 28.3131 228.043 28.2494 227.585C27.9567 225.441 27.4922 222.386 26.7668 218.746C26.5441 217.601 26.2768 216.373 25.9968 215.119C27.1355 214.662 28.2467 214.14 29.3248 213.554Z" fill="#263238"/>
<path d="M46.9322 170.22C46.9704 170.22 47.7085 167.376 47.734 167.191C48.033 165.04 47.3458 160.7 45.1886 159.644C44.8198 159.478 44.42 159.391 44.0153 159.39C43.6107 159.388 43.2103 159.472 42.8403 159.636C42.4704 159.8 42.1392 160.04 41.8684 160.341C41.5976 160.642 41.3933 160.996 41.2689 161.381C40.6771 162.998 41.4216 164.977 42.3061 166.338C43.3115 167.936 46.9258 170.22 46.9322 170.22Z" fill="#263238"/>
<path d="M64.6155 162.266C64.2151 162.333 63.8054 162.321 63.4098 162.229C63.0143 162.137 62.6408 161.968 62.3108 161.732C61.9808 161.495 61.7008 161.196 61.487 160.851C61.2731 160.505 61.1297 160.121 61.0648 159.721L56.3369 131.525L62.4075 130.5L67.1354 158.702C67.2065 159.102 67.1976 159.512 67.1091 159.908C67.0206 160.304 66.8544 160.679 66.62 161.011C66.3856 161.342 66.0877 161.624 65.7436 161.839C65.3995 162.055 65.0161 162.2 64.6155 162.266Z" fill="white" stroke="#263238" stroke-linecap="round" stroke-linejoin="round"/>
<path d="M64.5394 143.246L58.2397 142.883L61.065 159.74C61.1182 160.15 61.2537 160.546 61.4634 160.903C61.673 161.26 61.9526 161.572 62.2853 161.818C62.6179 162.065 62.997 162.242 63.3996 162.339C63.8023 162.435 64.2204 162.45 64.6288 162.381C65.0372 162.313 65.4276 162.163 65.7767 161.94C66.1258 161.717 66.4263 161.426 66.6603 161.084C66.8943 160.743 67.057 160.357 67.1387 159.951C67.2204 159.545 67.2193 159.127 67.1356 158.722L64.5394 143.246Z" fill="#FF2156" stroke="#263238" stroke-linecap="round" stroke-linejoin="round"/>
<path d="M63.3318 129.447L55.1172 130.827L56.077 136.543L64.2915 135.164L63.3318 129.447Z" fill="white" stroke="#263238" stroke-linecap="round" stroke-linejoin="round"/>
<path d="M75.1661 193.363C75.1661 193.363 55.1663 172.142 51.622 168.858C48.0776 165.575 46.945 163.036 47.0722 161.553C47.1995 160.071 51.6474 155.559 53.9382 155.75C56.229 155.941 69.0065 164.06 72.3217 168.311C74.8629 171.564 76.7651 175.269 77.9278 179.23C78.6659 181.731 78.6341 182.138 78.6341 182.138L83.7566 187.452L75.1661 193.363Z" fill="#999999" stroke="#263238" stroke-linecap="round" stroke-linejoin="round"/>
<path d="M48.001 164.378C48.001 164.378 46.1302 161.248 47.1165 159.625C48.1028 158.002 58.3413 144.99 60.0467 144.951C61.7521 144.913 59.6776 149.406 57.2469 153.02C54.8161 156.634 52.1562 160.656 52.0862 161.292C52.0162 161.929 51.9462 162.985 51.9462 162.985" fill="#999999"/>
<path d="M48.001 164.378C48.001 164.378 46.1302 161.248 47.1165 159.625C48.1028 158.002 58.3413 144.99 60.0467 144.951C61.7521 144.913 59.6776 149.406 57.2469 153.02C54.8161 156.634 52.1562 160.656 52.0862 161.292C52.0162 161.929 51.9462 162.985 51.9462 162.985" stroke="#263238" stroke-linecap="round" stroke-linejoin="round"/>
<path d="M51.9079 165.619C51.9079 165.619 51.7616 160.86 53.0342 158.658C54.3069 156.456 62.2674 145.581 63.1455 144.843C64.0236 144.105 66.4162 144.703 64.7427 148.502C63.0691 152.301 58.513 161.286 58.4239 162.368C58.3349 163.449 57.3676 170.15 57.3676 170.15" fill="#999999"/>
<path d="M51.9079 165.619C51.9079 165.619 51.7616 160.86 53.0342 158.658C54.3069 156.456 62.2674 145.581 63.1455 144.843C64.0236 144.105 66.4162 144.703 64.7427 148.502C63.0691 152.301 58.513 161.286 58.4239 162.368C58.3349 163.449 57.3676 170.15 57.3676 170.15" stroke="#263238" stroke-linecap="round" stroke-linejoin="round"/>
<path d="M57.4951 168.667C57.4951 168.667 58.2333 161.401 58.6532 161.299C59.0732 161.197 66.2892 146.46 66.2892 146.46C66.2892 146.46 68.7708 144.36 68.02 150.131C67.2691 155.903 63.8584 163.634 63.8584 163.634L63.4321 173.643" fill="#999999"/>
<path d="M57.4951 168.667C57.4951 168.667 58.2333 161.401 58.6532 161.299C59.0732 161.197 66.2892 146.46 66.2892 146.46C66.2892 146.46 68.7708 144.36 68.02 150.131C67.2691 155.903 63.8584 163.634 63.8584 163.634L63.4321 173.643" stroke="#263238" stroke-linecap="round" stroke-linejoin="round"/>
<path d="M63.604 170.265C63.604 170.265 65.7293 161.076 66.3339 160.312C66.9384 159.549 68.6628 151.951 69.7509 151.906C70.8391 151.862 71.3545 153.815 70.4254 156.851C69.4964 159.886 68.3892 163.335 68.3892 163.335L69.0255 170.042" fill="#999999"/>
<path d="M63.604 170.265C63.604 170.265 65.7293 161.076 66.3339 160.312C66.9384 159.549 68.6628 151.951 69.7509 151.906C70.8391 151.862 71.3545 153.815 70.4254 156.851C69.4964 159.886 68.3892 163.335 68.3892 163.335L69.0255 170.042" stroke="#263238" stroke-linecap="round" stroke-linejoin="round"/>
<path d="M122.872 244.27C127.58 243.379 144.469 223.907 144.469 223.907L142.999 246.484H250.837C249.52 235.545 242.323 141.922 241.598 139.988C240.828 137.933 196.049 118.957 196.049 118.957L175.776 119.727C175.776 119.727 150.399 136.406 143.699 140.255C136.998 144.105 134.72 145.645 134.72 147.185C134.72 148.725 119.932 208.495 119.932 208.495L83.2219 182.514L70.0945 194.808L117.991 244.123C117.991 244.123 118.163 245.167 122.872 244.27Z" fill="#FF2156" stroke="#263238" stroke-linecap="round" stroke-linejoin="round"/>
<path d="M144.52 214.566L144.73 170.786" stroke="#263238" stroke-linecap="round" stroke-linejoin="round"/>
<path d="M144.469 223.907L144.5 218.441" stroke="#263238" stroke-linecap="round" stroke-linejoin="round"/>
<path d="M144.214 181.566L139.34 165.658" stroke="#263238" stroke-linecap="round" stroke-linejoin="round"/>
<path d="M119.931 208.495C121.878 212.054 123.01 216.001 123.247 220.051" stroke="#263238" stroke-linecap="round" stroke-linejoin="round"/>
<path d="M123.247 222.8C123.247 222.8 123.132 224.162 123.132 226.91" stroke="#263238" stroke-linecap="round" stroke-linejoin="round"/>
<path d="M170.59 129.043L164.437 151.315L172.289 156.405L164.017 166.402L174.834 211.581L201.56 164.919L193.498 155.584L205.378 152.613L202.616 125.041C200.033 117.538 196.45 116.132 192.651 117.615C188.477 119.218 173.345 119.078 170.59 129.043Z" fill="#FF2156" stroke="#263238" stroke-linecap="round" stroke-linejoin="round"/>
<path d="M172.499 131.805C172.499 131.805 177.163 162.584 177.163 174.038C177.163 185.492 176.953 187.827 176.953 187.827C176.953 187.827 189.47 154.948 193.071 138.83C195.197 128.805 194.98 118.424 192.435 108.496C192.435 108.496 183.106 128.222 172.499 131.805Z" fill="white" stroke="#263238" stroke-linecap="round" stroke-linejoin="round"/>
<path d="M192.435 108.496C192.435 108.496 183.106 128.222 172.499 131.83C172.499 131.83 172.741 133.415 173.135 135.986C175.833 135.725 182.266 134.955 186.237 133.364C189.801 131.938 192.371 120.637 193.612 113.829C193.323 112.03 192.929 110.25 192.435 108.496Z" fill="#263238" stroke="#263238" stroke-linecap="round" stroke-linejoin="round"/>
<path d="M190.946 146.924C184.118 149.813 178.404 148.973 174.713 147.681C175.916 157.003 177.163 168.088 177.163 174.012C177.163 185.466 176.953 187.802 176.953 187.802C176.953 187.802 186.033 163.959 190.946 146.924Z" fill="#263238" stroke="#263238" stroke-linecap="round" stroke-linejoin="round"/>
<path d="M145.62 92.3016C145.62 92.3016 140.529 95.1205 137.348 85.7856C134.166 76.4507 144.036 58.8625 154.249 55.14C164.462 51.4175 176.972 51.2648 186.485 59.1871C195.998 67.1094 195.292 86.4919 195.292 86.4919C195.292 86.4919 204.455 85.9638 209.736 97.2331C215.018 108.503 205.155 118.022 198.461 117.844C191.767 117.666 188.279 111.481 187.541 106.046C186.803 100.612 174.509 87.0201 168.343 85.4356C162.177 83.8512 157.774 89.4827 152.842 90.5262C147.911 91.5698 145.62 92.3016 145.62 92.3016Z" fill="#263238"/>
<path d="M158.773 69.6801C158.773 69.6801 165.137 73.8226 176.724 75.7189C188.312 77.6151 194.847 80.3832 198.818 83.9911" stroke="#616161" stroke-linecap="round" stroke-linejoin="round"/>
<path d="M161.363 62.9732C161.363 62.9732 171.373 68.1529 182.763 67.6375C194.153 67.1221 201.407 75.9097 201.407 75.9097" stroke="#616161" stroke-linecap="round" stroke-linejoin="round"/>
<path d="M165.855 56.2409C171.273 58.2315 176.991 59.2838 182.763 59.3525C188.224 59.3654 193.474 61.4668 197.436 65.2258" stroke="#616161" stroke-linecap="round" stroke-linejoin="round"/>
<path d="M152.047 71.0864C152.047 71.0864 150.183 72.6072 143.775 79.1996C137.367 85.7919 139.321 91.1053 139.321 91.1053" stroke="#616161" stroke-linecap="round" stroke-linejoin="round"/>
<path d="M152.047 67.1348C152.047 67.1348 145.83 70.9527 139.957 75.0761C134.084 79.1995 134.262 84.5702 134.262 84.5702" stroke="#616161" stroke-linecap="round" stroke-linejoin="round"/>
<path d="M154.459 59.6961C150.646 61.0931 147.133 63.2005 144.106 65.9067C138.754 70.571 135.834 73.6763 135.834 73.6763" stroke="#616161" stroke-linecap="round" stroke-linejoin="round"/>
<path d="M147.733 57.7999C147.733 57.7999 151.354 55.0382 154.981 53.9819C157.292 53.3999 159.734 53.643 161.885 54.6691C161.885 54.6691 154.287 64.8504 154.809 73.829" stroke="#616161" stroke-linecap="round" stroke-linejoin="round"/>
<path d="M145.62 92.3016C145.62 92.3016 140.529 95.1205 137.348 85.7856C134.166 76.4507 144.036 58.8625 154.249 55.14C164.462 51.4175 176.972 51.2648 186.485 59.1871C195.998 67.1094 195.292 86.4919 195.292 86.4919C195.292 86.4919 204.455 85.9638 209.736 97.2331C215.018 108.503 205.155 118.022 198.461 117.844C191.767 117.666 188.279 111.481 187.541 106.046C186.803 100.612 174.509 87.0201 168.343 85.4356C162.177 83.8512 157.774 89.4827 152.842 90.5262C147.911 91.5698 145.62 92.3016 145.62 92.3016Z" stroke="#263238" stroke-linecap="round" stroke-linejoin="round"/>
<path d="M144.386 90.7171C144.386 90.7171 149.139 105.69 151.43 112.734C153.721 119.778 160.065 129.47 165.875 132.288C171.684 135.107 181.904 131.41 183.316 130.176C184.729 128.941 191.945 115.909 193.179 113.09C194.414 110.272 193.529 103.049 193.529 103.049C193.529 103.049 196.876 98.2958 196.711 93.8924C196.546 89.489 194.064 87.3701 192.658 88.2546C191.775 88.8176 190.999 89.5329 190.367 90.3672C190.367 90.3672 189.132 88.0764 184.379 85.2765C179.626 82.4767 176.024 85.652 168.273 83.3676C163.939 82.1315 159.723 80.5131 155.674 78.5315C155.674 78.5315 150.552 88.2546 144.386 90.7171Z" fill="white" stroke="#263238" stroke-linecap="round" stroke-linejoin="round"/>
<path d="M195.133 92.378C195.133 92.378 194.955 90.0554 193.345 91.4871C191.735 92.9189 193.166 95.2351 193.166 95.2351C193.166 95.2351 195.667 94.7006 194.439 96.6668" stroke="#263238" stroke-linecap="round" stroke-linejoin="round"/>
<path d="M151.748 102.171V105.315C152.846 105.723 154.026 105.865 155.19 105.728C156.354 105.591 157.469 105.179 158.442 104.525" stroke="#263238" stroke-linecap="round" stroke-linejoin="round"/>
<path d="M169.489 98.894L169.616 102.566C170.974 102.752 172.357 102.65 173.673 102.265C174.989 101.88 176.208 101.221 177.252 100.332" stroke="#263238" stroke-linecap="round" stroke-linejoin="round"/>
<path d="M150.177 98.7603C150.177 98.7603 152.932 96.7941 159.359 98.4994" stroke="#263238" stroke-width="2" stroke-linecap="round" stroke-linejoin="round"/>
<path d="M164.608 97.3159C164.608 97.3159 167.23 94.2997 174.968 93.3834" stroke="#263238" stroke-width="2" stroke-linecap="round" stroke-linejoin="round"/>
<path d="M167.459 108.331C162.884 107.274 163.234 107.103 160.065 109.743C156.896 112.384 151.258 112.034 151.258 112.034H151.214C151.29 112.263 151.36 112.492 151.43 112.709C153.721 119.759 160.065 129.444 165.875 132.263C171.684 135.082 181.904 131.385 183.316 130.15C184.26 129.009 185.095 127.782 185.811 126.485C185.942 126.13 186.051 125.766 186.135 125.397C186.663 122.928 187.72 117.468 189.832 113.771C191.945 110.074 193.529 103.024 193.529 103.024C193.529 103.024 188.439 116.387 186.307 115.884C184.175 115.381 184.016 111.302 184.016 109.012C184.016 106.721 188.776 101.439 190.539 96.1514C192.301 90.8635 190.361 90.3417 190.361 90.3417C189.304 100.555 184.194 106.549 184.194 106.549C176.972 110.45 172.034 109.393 167.459 108.331Z" fill="#999999" stroke="#263238" stroke-linecap="round" stroke-linejoin="round"/>
<path d="M142.273 97.2331C140.899 97.1568 146.498 107.453 148.083 109.037C149.667 110.621 155.661 111.328 158.652 109.922C161.643 108.515 160.415 103.756 162.884 103.558C165.353 103.361 166.759 107.783 169.05 108.649C171.34 109.514 179.085 107.764 183.138 106.008C187.191 104.252 187.363 99.6448 187.363 99.6448L185.779 90.0426C185.779 90.0426 166.581 98.6458 142.273 97.2331Z" stroke="#263238" stroke-linecap="round" stroke-linejoin="round"/>
<path d="M142.273 97.2331C142.273 97.2331 164.29 99.5239 192.295 87.37" stroke="#263238" stroke-width="3" stroke-linecap="round" stroke-linejoin="round"/>
<path d="M180.847 92.4798L183.138 102.699" stroke="#263238" stroke-linecap="round" stroke-linejoin="round"/>
<path d="M156.05 208.96L146.778 240.642L146.937 243.601L149.031 241.603L158.48 209.672C158.53 209.504 158.544 209.327 158.521 209.153C158.499 208.979 158.441 208.811 158.351 208.66C158.261 208.51 158.14 208.379 157.997 208.278C157.854 208.176 157.691 208.105 157.52 208.069C157.208 208.007 156.884 208.064 156.611 208.229C156.339 208.393 156.139 208.654 156.05 208.96Z" fill="white" stroke="#263238" stroke-linecap="round" stroke-linejoin="round"/>
<path d="M189.062 228.959C189.062 228.959 173.899 224.989 170.52 223.315C167.141 221.642 159.499 217.385 158.08 219.631C156.661 221.877 144.806 233.216 145.461 234.604C146.117 235.991 153.256 242.291 154.853 242.761C156.451 243.232 159.352 245.135 163.024 243.85C166.696 242.564 168.305 241.941 168.305 241.941C168.305 241.941 174.866 243.678 176.686 243.722C178.506 243.767 184.245 241.61 184.245 241.61L188.579 241.247L189.062 228.959Z" fill="#999999" stroke="#263238" stroke-linecap="round" stroke-linejoin="round"/>
<path d="M148.356 237.397L160.701 224.696" stroke="#263238" stroke-linecap="round" stroke-linejoin="round"/>
<path d="M151.245 240.649L162.419 229.513" stroke="#263238" stroke-linecap="round" stroke-linejoin="round"/>
<path d="M156.196 243.264L165.257 235.043" stroke="#263238" stroke-linecap="round" stroke-linejoin="round"/>
<path d="M227.516 149.488C227.516 149.488 216.431 163.106 216.329 167.98C216.227 172.854 225.747 217.976 225.747 217.976L185.302 225.046L186.415 244.32C186.415 244.32 250.589 243.932 253.16 243.735C255.73 243.538 261.101 244.422 261.655 242.38C262.208 240.337 243.468 143.322 242.985 142.031C242.465 140.899 241.586 139.97 240.486 139.388C239.385 138.806 238.123 138.603 236.895 138.811" fill="#FF2156"/>
<path d="M227.516 149.488C227.516 149.488 216.431 163.106 216.329 167.98C216.227 172.854 225.747 217.976 225.747 217.976L185.302 225.046L186.415 244.32C186.415 244.32 250.589 243.932 253.16 243.735C255.73 243.538 261.101 244.422 261.655 242.38C262.208 240.337 243.468 143.322 242.985 142.031C242.465 140.899 241.586 139.97 240.486 139.388C239.385 138.806 238.123 138.603 236.895 138.811" stroke="#263238" stroke-linecap="round" stroke-linejoin="round"/>
<path d="M225.747 217.976L240.942 215.749" stroke="#263238" stroke-linecap="round" stroke-linejoin="round"/>
<path d="M226.778 218.002L237.926 212.86" stroke="#263238" stroke-linecap="round" stroke-linejoin="round"/>
<path d="M243.405 215.934C243.405 215.934 247.967 215.247 250.252 215.476" stroke="#263238" stroke-linecap="round" stroke-linejoin="round"/>
<path d="M214 172.25H195.782V199.058H214V172.25Z" fill="white" stroke="#263238" stroke-linecap="round" stroke-linejoin="round"/>
<path d="M206.848 166.262H202.941V175.89H206.848V166.262Z" fill="#263238" stroke="#263238" stroke-linecap="round" stroke-linejoin="round"/>
<path d="M2.98096 246.427H280" stroke="#263238" stroke-linecap="round" stroke-linejoin="round"/>
<path d="M53.2444 213.166H59.404V241.762C59.404 242.167 59.3244 242.567 59.1696 242.941C59.0148 243.315 58.788 243.654 58.502 243.94C58.216 244.226 57.8765 244.453 57.5028 244.608C57.1291 244.763 56.7287 244.842 56.3242 244.842C55.5074 244.842 54.724 244.518 54.1464 243.94C53.5689 243.363 53.2444 242.579 53.2444 241.762V213.166Z" fill="white" stroke="#263238" stroke-linecap="round" stroke-linejoin="round"/>
<path d="M53.2446 224.849V241.762C53.2257 242.178 53.2913 242.593 53.4374 242.983C53.5835 243.373 53.807 243.729 54.0946 244.03C54.3821 244.331 54.7277 244.57 55.1104 244.734C55.4931 244.898 55.9051 244.982 56.3213 244.982C56.7375 244.982 57.1494 244.898 57.5321 244.734C57.9149 244.57 58.2604 244.331 58.548 244.03C58.8355 243.729 59.0591 243.373 59.2052 242.983C59.3513 242.593 59.4168 242.178 59.3979 241.762V224.849H53.2446Z" fill="#FF2156" stroke="#263238" stroke-linecap="round" stroke-linejoin="round"/>
<path d="M60.486 212.262H52.1565V218.053H60.486V212.262Z" fill="white" stroke="#263238" stroke-linecap="round" stroke-linejoin="round"/>
<path d="M68.3127 244.842C67.4959 244.842 66.7126 244.518 66.135 243.94C65.5574 243.363 65.2329 242.579 65.2329 241.762V213.166H71.3862V241.762C71.3862 242.578 71.0626 243.36 70.4864 243.938C69.9102 244.515 69.1285 244.84 68.3127 244.842Z" fill="white" stroke="#263238" stroke-linecap="round" stroke-linejoin="round"/>
<path d="M65.2139 224.849V241.762C65.195 242.178 65.2605 242.593 65.4066 242.983C65.5527 243.373 65.7763 243.729 66.0638 244.03C66.3514 244.331 66.6969 244.57 67.0797 244.734C67.4624 244.898 67.8743 244.982 68.2905 244.982C68.7067 244.982 69.1187 244.898 69.5014 244.734C69.8841 244.57 70.2297 244.331 70.5172 244.03C70.8048 243.729 71.0283 243.373 71.1744 242.983C71.3205 242.593 71.3861 242.178 71.3672 241.762V224.849H65.2139Z" fill="#FF2156" stroke="#263238" stroke-linecap="round" stroke-linejoin="round"/>
<path d="M72.455 212.262H64.1255V218.053H72.455V212.262Z" fill="white" stroke="#263238" stroke-linecap="round" stroke-linejoin="round"/>
<path d="M80.2629 244.842C79.4472 244.84 78.6655 244.515 78.0893 243.938C77.5131 243.36 77.1895 242.578 77.1895 241.762V213.166H83.3427V241.762C83.3427 242.579 83.0183 243.363 82.4407 243.94C81.8631 244.518 81.0797 244.842 80.2629 244.842Z" fill="white" stroke="#263238" stroke-linecap="round" stroke-linejoin="round"/>
<path d="M77.2214 224.849V241.762C77.2214 242.578 77.545 243.36 78.1212 243.938C78.6974 244.515 79.4792 244.84 80.2949 244.842C81.1117 244.842 81.8951 244.518 82.4727 243.94C83.0502 243.363 83.3747 242.579 83.3747 241.762V224.849H77.2214Z" fill="#FF2156" stroke="#263238" stroke-linecap="round" stroke-linejoin="round"/>
<path d="M84.4309 212.262H76.1013V218.053H84.4309V212.262Z" fill="white" stroke="#263238" stroke-linecap="round" stroke-linejoin="round"/>
<path d="M92.2385 244.842C91.4217 244.842 90.6383 244.518 90.0608 243.94C89.4832 243.363 89.1587 242.579 89.1587 241.762V213.166H95.312V241.762C95.312 242.578 94.9884 243.36 94.4122 243.938C93.836 244.515 93.0542 244.84 92.2385 244.842Z" fill="white" stroke="#263238" stroke-linecap="round" stroke-linejoin="round"/>
<path d="M89.1589 224.849V241.762C89.14 242.178 89.2056 242.593 89.3517 242.983C89.4978 243.373 89.7213 243.729 90.0089 244.03C90.2964 244.331 90.642 244.57 91.0247 244.734C91.4074 244.898 91.8194 244.982 92.2356 244.982C92.6518 244.982 93.0637 244.898 93.4464 244.734C93.8292 244.57 94.1747 244.331 94.4623 244.03C94.7499 243.729 94.9734 243.373 95.1195 242.983C95.2656 242.593 95.3312 242.178 95.3122 241.762V224.849H89.1589Z" fill="#FF2156" stroke="#263238" stroke-linecap="round" stroke-linejoin="round"/>
<path d="M96.4003 212.262H88.0708V218.053H96.4003V212.262Z" fill="white" stroke="#263238" stroke-linecap="round" stroke-linejoin="round"/>
<path d="M101.605 221.177H47.9883V222.997H101.605V241.998H45.3857V246.427H105.251V245.383V241.998V222.997V221.177H101.605Z" fill="white" stroke="#263238" stroke-linecap="round" stroke-linejoin="round"/>
<path d="M116.158 246.427H182.527V244.079C182.527 244.079 171.856 244.34 164.303 242.806C159.816 241.946 155.266 241.457 150.698 241.342C147.65 241.228 144.399 241.724 142.095 243.722C139.811 242.144 137.087 241.762 134.376 241.762C128.389 241.762 119.276 243.067 112.773 244.104C108.985 244.725 105.157 245.074 101.319 245.148V246.452L116.158 246.427Z" fill="#263238" stroke="#263238" stroke-linecap="round" stroke-linejoin="round"/>
<path d="M232.714 116.985L231.633 115.935C231.572 115.87 231.508 115.808 231.442 115.75C230.919 115.289 230.248 115.031 229.551 115.026C228.854 115.02 228.178 115.267 227.649 115.721C227.12 116.174 226.772 116.804 226.67 117.493C226.569 118.183 226.72 118.886 227.096 119.473C227.282 119.746 227.509 119.989 227.77 120.192L228.731 121.21L229.164 120.752C229.28 120.758 229.397 120.758 229.514 120.752C230.281 120.752 231.018 120.447 231.561 119.904C232.104 119.361 232.409 118.624 232.409 117.856C232.409 117.673 232.39 117.489 232.352 117.309L232.714 116.985Z" fill="#5E5E5E" stroke="#263238" stroke-linecap="round" stroke-linejoin="round"/>
<path d="M230.78 122.063C232.379 122.063 233.675 120.766 233.675 119.167C233.675 117.568 232.379 116.272 230.78 116.272C229.181 116.272 227.885 117.568 227.885 119.167C227.885 120.766 229.181 122.063 230.78 122.063Z" fill="#263238" stroke="#263238" stroke-linecap="round" stroke-linejoin="round"/>
<path d="M236.176 119.505L234.725 118.092L234.464 117.844C233.764 117.22 232.861 116.872 231.923 116.864C230.985 116.855 230.076 117.187 229.365 117.798C228.653 118.409 228.187 119.257 228.053 120.185C227.919 121.113 228.126 122.058 228.635 122.845L228.667 122.883C228.912 123.252 229.218 123.577 229.571 123.844L230.843 125.212L231.423 124.576C231.579 124.596 231.736 124.607 231.893 124.608C232.465 124.61 233.031 124.485 233.549 124.242C234.067 124 234.525 123.646 234.89 123.205C235.255 122.765 235.518 122.249 235.66 121.695C235.802 121.141 235.819 120.563 235.711 120.001L236.176 119.505Z" fill="#5E5E5E" stroke="#263238" stroke-linecap="round" stroke-linejoin="round"/>
<path d="M233.58 126.313C235.724 126.313 237.461 124.575 237.461 122.432C237.461 120.288 235.724 118.55 233.58 118.55C231.436 118.55 229.698 120.288 229.698 122.432C229.698 124.575 231.436 126.313 233.58 126.313Z" fill="#263238" stroke="#263238" stroke-linecap="round" stroke-linejoin="round"/>
<path d="M243.984 116.985L242.902 115.935C242.845 115.867 242.781 115.805 242.711 115.75C242.295 115.378 241.781 115.135 241.229 115.05C240.678 114.965 240.114 115.041 239.606 115.27C239.097 115.499 238.666 115.871 238.364 116.34C238.063 116.809 237.904 117.356 237.907 117.914C237.908 118.466 238.067 119.007 238.365 119.473C238.549 119.748 238.777 119.991 239.039 120.192L240 121.21L240.427 120.752C240.545 120.758 240.664 120.758 240.783 120.752C241.55 120.75 242.285 120.444 242.826 119.902C243.368 119.359 243.672 118.623 243.672 117.856C243.671 117.673 243.654 117.49 243.621 117.309L243.984 116.985Z" fill="#5E5E5E" stroke="#263238" stroke-linecap="round" stroke-linejoin="round"/>
<path d="M242.049 122.063C243.648 122.063 244.944 120.766 244.944 119.167C244.944 117.568 243.648 116.272 242.049 116.272C240.45 116.272 239.154 117.568 239.154 119.167C239.154 120.766 240.45 122.063 242.049 122.063Z" fill="#263238" stroke="#263238" stroke-linecap="round" stroke-linejoin="round"/>
<path d="M247.445 119.505L245.995 118.092L245.74 117.844C245.039 117.22 244.137 116.872 243.199 116.864C242.261 116.855 241.352 117.187 240.641 117.798C239.929 118.409 239.463 119.257 239.329 120.185C239.195 121.113 239.402 122.058 239.911 122.845L239.943 122.883C240.19 123.253 240.498 123.577 240.853 123.844L242.126 125.212L242.698 124.576C242.857 124.596 243.016 124.607 243.176 124.608C243.748 124.61 244.313 124.485 244.831 124.242C245.349 124 245.807 123.646 246.172 123.205C246.537 122.765 246.8 122.249 246.942 121.695C247.084 121.141 247.102 120.563 246.994 120.001L247.445 119.505Z" fill="#5E5E5E" stroke="#263238" stroke-linecap="round" stroke-linejoin="round"/>
<path d="M248.737 122.432C248.737 123.199 248.509 123.95 248.083 124.588C247.656 125.227 247.05 125.724 246.341 126.018C245.632 126.312 244.851 126.388 244.098 126.239C243.345 126.089 242.654 125.719 242.111 125.176C241.568 124.634 241.198 123.942 241.048 123.189C240.899 122.436 240.976 121.656 241.269 120.946C241.563 120.237 242.061 119.631 242.699 119.204C243.337 118.778 244.088 118.55 244.855 118.55C245.885 118.55 246.872 118.959 247.6 119.687C248.328 120.415 248.737 121.402 248.737 122.432Z" fill="#263238" stroke="#263238" stroke-linecap="round" stroke-linejoin="round"/>
<path d="M252.02 123.768C251.815 123.408 251.555 123.082 251.25 122.801L251.155 122.686C250.428 122.064 249.503 121.724 248.546 121.725H232.797C231.73 121.725 230.707 122.149 229.953 122.903C229.199 123.657 228.775 124.68 228.775 125.747C228.776 126.781 229.175 127.774 229.889 128.521H229.838L236.545 135.928L258.352 130.71L252.02 123.768Z" fill="#5E5E5E" stroke="#263238" stroke-linecap="round" stroke-linejoin="round"/>
<path d="M255.845 137.964H240.121C239.054 137.964 238.031 137.541 237.277 136.787C236.523 136.032 236.099 135.009 236.099 133.943C236.099 132.876 236.523 131.853 237.277 131.099C238.031 130.345 239.054 129.921 240.121 129.921H255.845C256.909 129.926 257.928 130.353 258.678 131.108C259.428 131.863 259.849 132.885 259.847 133.949C259.845 135.011 259.424 136.03 258.674 136.782C257.924 137.534 256.907 137.959 255.845 137.964Z" fill="#263238" stroke="#263238" stroke-linecap="round" stroke-linejoin="round"/>
<path d="M261.616 134.897H239.434L241.407 140.064L239.434 151.13H261.616C263.716 151.047 265.702 150.155 267.158 148.64C268.614 147.125 269.427 145.105 269.427 143.004C269.427 140.903 268.614 138.883 267.158 137.369C265.702 135.854 263.716 134.961 261.616 134.878V134.897Z" fill="#263238" stroke="#263238" stroke-linecap="round" stroke-linejoin="round"/>
<path d="M239.434 134.897V151.13C241.534 151.047 243.519 150.155 244.975 148.64C246.431 147.125 247.245 145.105 247.245 143.004C247.245 140.903 246.431 138.883 244.975 137.369C243.519 135.854 241.534 134.961 239.434 134.878V134.897Z" fill="#5E5E5E" stroke="#263238" stroke-linecap="round" stroke-linejoin="round"/>
<path d="M247.566 153.039C247.566 153.039 239.434 154.146 233.268 158.83C227.102 163.513 225.874 168.075 225.384 170.659C225.071 172.452 224.905 174.267 224.887 176.087V218.479H233.268V175.069C233.268 175.069 232.53 169.399 235.737 164.716C238.944 160.032 247.566 158.06 247.566 158.06V153.039Z" fill="#263238" stroke="#263238" stroke-linecap="round" stroke-linejoin="round"/>
<path d="M240.293 153.039C240.293 153.039 232.161 154.146 226.001 158.83C219.842 163.513 218.607 168.075 218.111 170.659C217.802 172.452 217.638 174.267 217.621 176.087V218.479H226.001V175.069C226.001 175.069 225.263 169.399 228.464 164.716C231.665 160.032 240.293 158.06 240.293 158.06V153.039Z" fill="white" stroke="#263238" stroke-linecap="round" stroke-linejoin="round"/>
<path d="M226.923 202.249C227.464 198.93 225.211 195.8 221.891 195.26C218.572 194.719 215.443 196.972 214.902 200.291C214.361 203.611 216.614 206.74 219.934 207.281C223.253 207.821 226.382 205.569 226.923 202.249Z" fill="#263238" stroke="#263238" stroke-linecap="round" stroke-linejoin="round"/>
<path d="M248.89 173.344H246.427V174.948H248.89V173.344Z" fill="#263238" stroke="#263238" stroke-linecap="round" stroke-linejoin="round"/>
<path d="M250.557 158.798H244.767V173.586H250.557V158.798Z" fill="#263238" stroke="#263238" stroke-linecap="round" stroke-linejoin="round"/>
<path d="M264.537 171.315L262.261 172.257L262.875 173.739L265.15 172.797L264.537 171.315Z" fill="#263238" stroke="#263238" stroke-linecap="round" stroke-linejoin="round"/>
<path d="M260.513 157.247L255.163 159.462L260.82 173.126L266.17 170.911L260.513 157.247Z" fill="#263238" stroke="#263238" stroke-linecap="round" stroke-linejoin="round"/>
<path d="M262.851 151.149H239.434V160.891H262.851V151.149Z" fill="#5E5E5E" stroke="#263238" stroke-linecap="round" stroke-linejoin="round"/>
<path d="M262.851 151.149H244.531V160.891H262.851V151.149Z" fill="#263238" stroke="#263238" stroke-linecap="round" stroke-linejoin="round"/>
<path d="M258.04 197.557H257.117V189.609H254.903V197.557H254.158V202.552H254.903V215.673H257.117V202.552H258.04V197.557Z" fill="#263238" stroke="#263238" stroke-linecap="round" stroke-linejoin="round"/>
<path d="M274.928 240.261H232.899V224.009C232.899 221.646 233.838 219.38 235.508 217.709C237.179 216.039 239.445 215.1 241.808 215.1H249.8C256.468 215.1 262.862 217.749 267.577 222.464C272.292 227.179 274.941 233.574 274.941 240.241L274.928 240.261Z" fill="#263238" stroke="#263238" stroke-linecap="round" stroke-linejoin="round"/>
<path d="M263.341 240.261H221.343V224.009C221.343 221.646 222.282 219.38 223.952 217.709C225.623 216.039 227.889 215.1 230.252 215.1H238.212C244.88 215.1 251.275 217.749 255.99 222.464C260.705 227.179 263.353 233.574 263.353 240.241L263.341 240.261Z" fill="#5E5E5E" stroke="#263238" stroke-linecap="round" stroke-linejoin="round"/>
<path d="M252.739 188.743H235.489V216.347H252.739V188.743Z" fill="#263238" stroke="#263238" stroke-linecap="round" stroke-linejoin="round"/>
<path d="M252.739 197.76H235.489V207.343H252.739V197.76Z" fill="#5E5E5E" stroke="#263238" stroke-linecap="round" stroke-linejoin="round"/>
<path d="M258.537 240.261H216.507V224.009C216.507 221.646 217.446 219.38 219.116 217.709C220.787 216.039 223.053 215.1 225.416 215.1H233.408C240.076 215.1 246.471 217.749 251.186 222.464C255.9 227.179 258.549 233.574 258.549 240.241L258.537 240.261Z" fill="#263238" stroke="#263238" stroke-linecap="round" stroke-linejoin="round"/>
<path d="M209.056 246.427C208.896 246.427 208.741 246.367 208.623 246.259C208.505 246.15 208.432 246.001 208.419 245.841L207.898 240.999H210.214L209.692 245.841C209.679 246.001 209.607 246.15 209.489 246.259C209.371 246.367 209.216 246.427 209.056 246.427Z" fill="#263238" stroke="#263238" stroke-linecap="round" stroke-linejoin="round"/>
<path d="M236.303 246.427C236.143 246.427 235.988 246.367 235.871 246.259C235.753 246.15 235.68 246.001 235.667 245.841L235.145 240.999H237.487L236.965 245.841C236.952 246.005 236.876 246.158 236.752 246.267C236.629 246.377 236.468 246.434 236.303 246.427Z" fill="#263238" stroke="#263238" stroke-linecap="round" stroke-linejoin="round"/>
<path d="M246.427 246.427C246.267 246.427 246.112 246.367 245.994 246.259C245.876 246.15 245.804 246.001 245.791 245.841L245.269 240.999H247.611L247.089 245.841C247.076 246.005 247 246.158 246.876 246.267C246.753 246.377 246.592 246.434 246.427 246.427Z" fill="#263238" stroke="#263238" stroke-linecap="round" stroke-linejoin="round"/>
<path d="M274.031 246.427C273.871 246.427 273.716 246.367 273.598 246.259C273.48 246.15 273.407 246.001 273.395 245.841L272.873 240.999H275.214L274.693 245.841C274.68 246.005 274.603 246.158 274.48 246.267C274.357 246.377 274.196 246.434 274.031 246.427Z" fill="#263238" stroke="#263238" stroke-linecap="round" stroke-linejoin="round"/>
<path d="M246.949 240.261H204.951V224.009C204.951 221.646 205.89 219.38 207.56 217.709C209.231 216.039 211.497 215.1 213.86 215.1H221.852C228.52 215.1 234.915 217.749 239.63 222.464C244.345 227.179 246.993 233.574 246.993 240.241L246.949 240.261Z" fill="#5E5E5E" stroke="#263238" stroke-linecap="round" stroke-linejoin="round"/>
<path d="M276.596 239.153H203.876C203.163 239.153 202.584 239.732 202.584 240.445V240.451C202.584 241.165 203.163 241.743 203.876 241.743H276.596C277.309 241.743 277.887 241.165 277.887 240.451V240.445C277.887 239.732 277.309 239.153 276.596 239.153Z" fill="white" stroke="#263238" stroke-linecap="round" stroke-linejoin="round"/>
<path d="M278.619 186.033H224.518V190.595H278.619V186.033Z" fill="white" stroke="#263238" stroke-linecap="round" stroke-linejoin="round"/>
<path d="M278.626 186.033H243.112V190.595H278.626V186.033Z" fill="#263238" stroke="#263238" stroke-linecap="round" stroke-linejoin="round"/>
</svg>
