<svg width="158" height="52" viewBox="0 0 158 52" fill="none" xmlns="http://www.w3.org/2000/svg">
<rect width="158" height="52" rx="10" fill="#689593"/>
<path d="M28.5 20.8001C28.5 19.421 29.0479 18.0983 30.023 17.1231C30.9982 16.148 32.3209 15.6001 33.7 15.6001C35.0791 15.6001 36.4018 16.148 37.377 17.1231C38.3521 18.0983 38.9 19.421 38.9 20.8001C38.9 22.1792 38.3521 23.5019 37.377 24.4771C36.4018 25.4522 35.0791 26.0001 33.7 26.0001C32.3209 26.0001 30.9982 25.4522 30.023 24.4771C29.0479 23.5019 28.5 22.1792 28.5 20.8001ZM33.7 16.9001C32.6657 16.9001 31.6737 17.311 30.9423 18.0424C30.2109 18.7738 29.8 19.7658 29.8 20.8001C29.8 21.8344 30.2109 22.8264 30.9423 23.5578C31.6737 24.2892 32.6657 24.7001 33.7 24.7001C34.7343 24.7001 35.7263 24.2892 36.4577 23.5578C37.1891 22.8264 37.6 21.8344 37.6 20.8001C37.6 19.7658 37.1891 18.7738 36.4577 18.0424C35.7263 17.311 34.7343 16.9001 33.7 16.9001Z" fill="white"/>
<path d="M24.6001 29.9003C24.6001 28.4534 25.774 27.3003 27.2118 27.3003H40.2001C40.5771 27.3003 40.9346 27.3809 41.257 27.5239C41.1114 28.0985 41.1582 28.7069 41.387 29.2503H41.3259C41.2118 29.0527 41.0477 28.8886 40.8501 28.7745C40.6525 28.6604 40.4283 28.6003 40.2001 28.6003H27.2118C26.4825 28.6003 25.9001 29.1814 25.9001 29.9003C25.9001 31.602 26.7087 32.8695 28.075 33.7392C29.466 34.6271 31.4446 35.1003 33.7001 35.1003C34.9507 35.1003 36.1155 34.9547 37.1425 34.6739C36.9683 35.1123 36.9109 35.5885 36.9761 36.0558C35.9504 36.2872 34.8441 36.4003 33.7001 36.4003C31.2886 36.4003 29.0422 35.8985 27.3756 34.8364C25.683 33.7574 24.6001 32.0973 24.6001 29.9003Z" fill="white"/>
<path d="M42.5855 27.6445L43.1042 26.4212C43.3473 25.8466 43.9297 25.5346 44.5017 25.6542L44.6239 25.6854L45.2739 25.8934C45.9187 26.1001 46.4114 26.6513 46.5713 27.3442C46.9496 28.9913 46.4959 30.9972 45.2076 33.3606C43.9219 35.7214 42.514 37.1397 40.9813 37.6181C40.3859 37.804 39.7463 37.6701 39.2653 37.2658L39.1392 37.1488L38.6452 36.6535C38.4377 36.4399 38.3036 36.1657 38.2625 35.8707C38.2213 35.5757 38.2752 35.2752 38.4164 35.0129L38.4892 34.8933L39.2328 33.8013C39.368 33.5952 39.5619 33.4343 39.7895 33.3396C40.0171 33.2448 40.2678 33.2204 40.5094 33.2696L40.6394 33.3047L42.0135 33.7636C42.5608 33.3476 43.0184 32.8276 43.3837 32.1971C43.697 31.6576 43.9037 31.1116 43.9986 30.5578L44.0376 30.2796L42.8949 29.1941C42.7105 29.0144 42.5793 28.7872 42.516 28.5375C42.4527 28.2879 42.4596 28.0256 42.5361 27.7797L42.5842 27.6445H42.5855Z" fill="white"/>
<path d="M65.717 26.416C65.717 25.328 65.9677 24.352 66.469 23.488C66.981 22.624 67.669 21.952 68.533 21.472C69.4077 20.9813 70.3623 20.736 71.397 20.736C72.581 20.736 73.6317 21.0293 74.549 21.616C75.477 22.192 76.149 23.0133 76.565 24.08H74.373C74.085 23.4933 73.685 23.056 73.173 22.768C72.661 22.48 72.069 22.336 71.397 22.336C70.661 22.336 70.005 22.5013 69.429 22.832C68.853 23.1627 68.3997 23.6373 68.069 24.256C67.749 24.8747 67.589 25.5947 67.589 26.416C67.589 27.2373 67.749 27.9573 68.069 28.576C68.3997 29.1947 68.853 29.6747 69.429 30.016C70.005 30.3467 70.661 30.512 71.397 30.512C72.069 30.512 72.661 30.368 73.173 30.08C73.685 29.792 74.085 29.3547 74.373 28.768H76.565C76.149 29.8347 75.477 30.656 74.549 31.232C73.6317 31.808 72.581 32.096 71.397 32.096C70.3517 32.096 69.397 31.856 68.533 31.376C67.669 30.8853 66.981 30.208 66.469 29.344C65.9677 28.48 65.717 27.504 65.717 26.416ZM78.092 27.552C78.092 26.6667 78.2733 25.8827 78.636 25.2C79.0093 24.5173 79.5107 23.9893 80.14 23.616C80.78 23.232 81.484 23.04 82.252 23.04C82.9453 23.04 83.548 23.1787 84.06 23.456C84.5827 23.7227 84.9987 24.0587 85.308 24.464V23.184H87.148V32H85.308V30.688C84.9987 31.104 84.5773 31.4507 84.044 31.728C83.5107 32.0053 82.9027 32.144 82.22 32.144C81.4627 32.144 80.7693 31.952 80.14 31.568C79.5107 31.1733 79.0093 30.6293 78.636 29.936C78.2733 29.232 78.092 28.4373 78.092 27.552ZM85.308 27.584C85.308 26.976 85.18 26.448 84.924 26C84.6787 25.552 84.3533 25.2107 83.948 24.976C83.5427 24.7413 83.1053 24.624 82.636 24.624C82.1667 24.624 81.7293 24.7413 81.324 24.976C80.9187 25.2 80.588 25.536 80.332 25.984C80.0867 26.4213 79.964 26.944 79.964 27.552C79.964 28.16 80.0867 28.6933 80.332 29.152C80.588 29.6107 80.9187 29.9627 81.324 30.208C81.74 30.4427 82.1773 30.56 82.636 30.56C83.1053 30.56 83.5427 30.4427 83.948 30.208C84.3533 29.9733 84.6787 29.632 84.924 29.184C85.18 28.7253 85.308 28.192 85.308 27.584ZM91.3678 20.16V32H89.5438V20.16H91.3678ZM95.5865 20.16V32H93.7625V20.16H95.5865ZM111.274 32H109.45L103.962 23.696V32H102.138V20.864H103.962L109.45 29.152V20.864H111.274V32ZM117.493 32.144C116.661 32.144 115.909 31.9573 115.237 31.584C114.565 31.2 114.037 30.6667 113.653 29.984C113.269 29.2907 113.077 28.4907 113.077 27.584C113.077 26.688 113.274 25.8933 113.669 25.2C114.063 24.5067 114.602 23.9733 115.285 23.6C115.967 23.2267 116.73 23.04 117.573 23.04C118.415 23.04 119.178 23.2267 119.861 23.6C120.543 23.9733 121.082 24.5067 121.477 25.2C121.871 25.8933 122.069 26.688 122.069 27.584C122.069 28.48 121.866 29.2747 121.461 29.968C121.055 30.6613 120.501 31.2 119.797 31.584C119.103 31.9573 118.335 32.144 117.493 32.144ZM117.493 30.56C117.962 30.56 118.399 30.448 118.805 30.224C119.221 30 119.557 29.664 119.813 29.216C120.069 28.768 120.197 28.224 120.197 27.584C120.197 26.944 120.074 26.4053 119.829 25.968C119.583 25.52 119.258 25.184 118.853 24.96C118.447 24.736 118.01 24.624 117.541 24.624C117.071 24.624 116.634 24.736 116.229 24.96C115.834 25.184 115.519 25.52 115.285 25.968C115.05 26.4053 114.933 26.944 114.933 27.584C114.933 28.5333 115.173 29.2693 115.653 29.792C116.143 30.304 116.757 30.56 117.493 30.56ZM135.712 23.184L132.976 32H131.056L129.28 25.488L127.504 32H125.584L122.832 23.184H124.688L126.528 30.272L128.4 23.184H130.304L132.096 30.24L133.92 23.184H135.712Z" fill="white"/>
</svg>
