<svg width="16" height="24" viewBox="0 0 16 24" fill="none" xmlns="http://www.w3.org/2000/svg">
<path d="M8 1.70117C8.71225 3.38986 9.88245 5.79833 12.0596 8.53906C13.5895 10.466 14.9999 13.0647 15 15.7373C15 20.1207 11.9734 23 8 23C4.02643 23 1 20.1226 1 15.7373C1.00008 13.1742 2.41473 10.4607 3.94043 8.53906L3.93945 8.53809C6.11651 5.7974 7.28776 3.38984 8 1.70117Z" stroke="white" stroke-width="2"/>
<path d="M9.9082 13.5586C10.043 13.6426 10.2019 13.783 10.3682 13.9902C10.5797 14.2539 10.7825 14.599 10.9473 14.999C11.2785 15.8035 11.4342 16.7778 11.2451 17.6836C11.1086 18.3362 10.8313 18.8036 10.5068 19.0615C10.2395 19.2739 9.91298 19.369 9.51953 19.2832L9.34668 19.2354L9.22852 19.1855C8.67879 18.9147 8.19771 18.0572 8.72168 16.8301L8.85059 16.5615C9.36107 15.5903 9.58218 14.6208 9.75488 14.0146C9.81733 13.7955 9.86808 13.6513 9.9082 13.5586Z" stroke="white"/>
</svg>
