<svg width="43" height="43" viewBox="0 0 43 43" fill="none" xmlns="http://www.w3.org/2000/svg">
<path d="M18.5681 5.375C15.9588 5.375 13.408 6.14876 11.2384 7.59844C9.06882 9.04812 7.37783 11.1086 6.37927 13.5193C5.38072 15.9301 5.11945 18.5827 5.62851 21.142C6.13757 23.7012 7.39409 26.052 9.23918 27.897C11.0843 29.7421 13.4351 30.9987 15.9943 31.5077C18.5535 32.0168 21.2062 31.7555 23.6169 30.757C26.0276 29.7584 28.0881 28.0674 29.5378 25.8978C30.9875 23.7282 31.7612 21.1775 31.7612 18.5681C31.761 15.0691 30.3709 11.7136 27.8968 9.23942C25.4227 6.76528 22.0671 5.37522 18.5681 5.375V5.375Z" stroke="#FF2156" stroke-width="2.5" stroke-miterlimit="10"/>
<path d="M28.4111 28.411L37.6251 37.6249" stroke="#FF2156" stroke-width="2.5" stroke-miterlimit="10" stroke-linecap="round"/>
<g clip-path="url(#clip0_7_173)">
<path d="M18.2749 10.7536C18.8097 11.9898 19.6892 13.7552 21.3276 15.7643C22.4757 17.1729 23.5278 19.0658 23.5278 21.0065C23.5278 24.1816 21.2753 26.2956 18.2749 26.2956C15.2745 26.2955 13.022 24.183 13.022 21.0065C13.022 19.1458 14.0765 17.1688 15.2212 15.7643L15.2222 15.7653C16.8608 13.7561 17.7401 11.9899 18.2749 10.7536Z" stroke="#FF2156" stroke-width="1.5"/>
<path d="M19.823 17.8993C19.9578 17.9833 20.1167 18.1237 20.283 18.3309C20.4945 18.5946 20.6973 18.9397 20.8621 19.3397C21.1933 20.1442 21.349 21.1185 21.1599 22.0243C21.0234 22.6769 20.7461 23.1443 20.4216 23.4022C20.1543 23.6146 19.8278 23.7097 19.4343 23.6239L19.2615 23.576L19.1433 23.5262C18.5936 23.2554 18.1125 22.3979 18.6365 21.1708L18.7654 20.9022C19.2759 19.931 19.497 18.9615 19.6697 18.3553C19.7321 18.1362 19.7829 17.992 19.823 17.8993Z" stroke="#FF2156"/>
</g>
<defs>
<clipPath id="clip0_7_173">
<rect width="19.35" height="19.35" fill="white" transform="translate(8.6001 8.59998)"/>
</clipPath>
</defs>
</svg>
