<svg width="114" height="171" viewBox="0 0 114 171" fill="none" xmlns="http://www.w3.org/2000/svg">
<path d="M56.9941 3.5C57.0967 3.5 57.1968 3.52983 57.2832 3.58789C57.3571 3.63761 57.4843 3.74951 57.5928 4.01855V4.01953C62.2246 15.7059 70.3702 35.4321 88.7656 58.5889V58.5898C99.8826 72.5918 110.5 91.8972 110.5 112.13C110.5 145.323 87.3531 167.5 57 167.5C26.6463 167.5 3.50002 145.337 3.5 112.13C3.5 92.6927 14.1313 72.5722 25.2334 58.5889C43.6291 35.4318 51.7754 15.706 56.4072 4.01953L56.4092 4.01367C56.5161 3.74259 56.6423 3.6325 56.7129 3.58496C56.7954 3.52944 56.8919 3.50009 56.9941 3.5Z" stroke="white" stroke-width="7"/>
<path d="M56.8525 126.645C57.6323 128.226 58.7343 130.12 60.3457 132.184C61.8906 134.164 63.2266 136.732 63.2266 139.282C63.2265 143.478 60.4428 146.082 56.8535 146.082C53.2638 146.082 50.4795 143.48 50.4795 139.282C50.4795 136.845 51.823 134.153 53.3594 132.184L53.3604 132.185C54.9718 130.121 56.0728 128.226 56.8525 126.645Z" stroke="white" stroke-width="4"/>
<path d="M73.5999 108.134C74.3796 109.715 75.4816 111.609 77.093 113.673C78.6379 115.653 79.9739 118.221 79.9739 120.772C79.9739 124.968 77.1901 127.572 73.6008 127.572C70.0111 127.572 67.2268 124.97 67.2268 120.772C67.2268 118.334 68.5703 115.643 70.1067 113.673L70.1077 113.674C71.7191 111.61 72.8201 109.715 73.5999 108.134Z" stroke="white" stroke-width="4"/>
<path d="M52.4453 94.9126C53.225 96.4937 54.3271 98.3876 55.9385 100.452C57.4833 102.432 58.8193 105 58.8193 107.55C58.8193 111.746 56.0355 114.35 52.4463 114.35C48.8566 114.35 46.0723 111.748 46.0723 107.55C46.0723 105.113 47.4157 102.421 48.9521 100.452L48.9531 100.453C50.5645 98.3886 51.6655 96.4937 52.4453 94.9126Z" stroke="white" stroke-width="4"/>
</svg>
