<svg width="125" height="188" viewBox="0 0 125 188" fill="none" xmlns="http://www.w3.org/2000/svg">
<path d="M62.4941 3.5C62.6721 3.50001 62.8473 3.55137 62.999 3.65332C63.1379 3.74672 63.3202 3.92471 63.4639 4.28223V4.2832C68.5375 17.0844 77.4551 38.6786 97.5957 64.0322V64.0332C109.805 79.4115 121.5 100.654 121.5 122.949C121.5 159.528 95.9723 184 62.5 184C29.0272 184 3.5 159.543 3.5 122.949C3.50006 101.527 15.2085 79.3919 27.4033 64.0322C47.5442 38.6784 56.4624 17.0845 61.5361 4.2832L61.5381 4.27734C61.6796 3.91848 61.8604 3.74285 61.9961 3.65137C62.144 3.55172 62.3162 3.5 62.4941 3.5Z" stroke="#FF2156" stroke-width="7"/>
<path d="M62.3389 138.421C63.1973 140.214 64.4399 142.411 66.3203 144.819C68.0257 147.005 69.5205 149.863 69.5205 152.722C69.5205 157.424 66.3865 160.371 62.3389 160.371C58.2909 160.371 55.1572 157.426 55.1572 152.722C55.1573 149.987 56.6603 146.994 58.3574 144.819L58.3564 144.818C60.2368 142.41 61.4805 140.214 62.3389 138.421Z" stroke="#FF2156" stroke-width="4"/>
<path d="M80.7021 118.125C81.5606 119.918 82.8032 122.114 84.6836 124.523C86.389 126.709 87.8837 129.566 87.8838 132.425C87.8838 137.127 84.7498 140.075 80.7021 140.075C76.6542 140.075 73.5205 137.129 73.5205 132.425C73.5206 129.691 75.0236 126.698 76.7207 124.523L76.7197 124.522C78.6001 122.113 79.8437 119.918 80.7021 118.125Z" stroke="#FF2156" stroke-width="4"/>
<path d="M57.5063 103.627C58.3648 105.42 59.6074 107.617 61.4878 110.026C63.1932 112.211 64.6879 115.069 64.688 117.928C64.688 122.63 61.554 125.577 57.5063 125.577C53.4584 125.577 50.3247 122.632 50.3247 117.928C50.3248 115.193 51.8278 112.201 53.5249 110.026L53.5239 110.025C55.4043 107.616 56.6479 105.42 57.5063 103.627Z" stroke="#FF2156" stroke-width="4"/>
</svg>
