<svg width="24" height="24" viewBox="0 0 24 24" fill="none" xmlns="http://www.w3.org/2000/svg">
<path d="M11.9995 2.21552C12.6399 3.74701 13.7313 6.08162 15.9263 8.77313V8.77216C17.361 10.5324 18.6958 12.9204 18.6958 15.3884C18.6957 19.4283 15.8179 22.1286 11.9995 22.1286C8.18115 22.1285 5.30431 19.4299 5.3042 15.3884C5.3042 13.0204 6.64137 10.5283 8.07275 8.77216L8.07373 8.77313C10.2686 6.08175 11.3592 3.74701 11.9995 2.21552Z" stroke="#FF2156" stroke-width="1.5"/>
<path d="M13.8687 11.3685C14.0772 11.4696 14.3275 11.6742 14.5845 11.9945C14.8548 12.3316 15.1118 12.7698 15.3198 13.2748C15.7117 14.2264 15.9107 15.3699 15.7358 16.4584L15.6958 16.6752C15.5226 17.5034 15.1674 18.1113 14.7368 18.4535C14.3766 18.7397 13.9355 18.8657 13.4136 18.7523L13.1851 18.6888L13.022 18.6215C12.2163 18.2255 11.5864 16.9431 12.5015 15.2025C13.1273 14.0119 13.3986 12.8255 13.6147 12.0668C13.7195 11.6991 13.7996 11.4838 13.8687 11.3685Z" stroke="#FF2156"/>
</svg>
