<svg width="22" height="38" viewBox="0 0 22 38" fill="none" xmlns="http://www.w3.org/2000/svg">
<path fill-rule="evenodd" clip-rule="evenodd" d="M21.2361 21.7764V4.11112C21.2361 4.11112 21.6684 0 16.3389 0H4.91039C-0.419109 0 0.0131401 4.11112 0.0131401 4.11112V21.7764C0.0131401 21.7764 -0.333609 25.9279 2.53539 25.9279H7.18802V28.1794H9.56539V33.1265H7.18802V35.5015H9.56539V37.6794H11.8359V35.5015H14.0636V33.1265H11.8359V28.1794H14.2109V25.9279H18.7139C21.9296 25.9279 21.2361 21.7764 21.2361 21.7764ZM15.7546 24.0231H14.2109V23.6265H7.18564V24.0231H5.63714C1.96539 24.0231 2.12689 20.8026 2.12689 20.8026V11.6423H7.01227V9.50237H2.12689V6.89225H6.97427V4.75237H2.25277C2.49977 3.74537 3.25739 2.05437 5.63477 2.05437H15.7546C18.9609 2.05437 19.2673 5.48625 19.2673 5.48625V20.8026C19.2696 20.8026 19.5546 24.0231 15.7546 24.0231Z" fill="#FF2156"/>
<path fill-rule="evenodd" clip-rule="evenodd" d="M4.76562 20.2019C4.76562 21.8549 6.43525 22.1185 6.43525 22.1185H14.8451C14.8451 22.1185 16.5171 22.0567 16.5171 20.2019V12.8156H4.76562V20.2019Z" fill="#FF0000"/>
</svg>
