<svg width="30" height="33" viewBox="0 0 30 33" fill="none" xmlns="http://www.w3.org/2000/svg">
<path d="M5 0V13.75H6.70875L7.5 11.775V2.5H20V10H27.5V30H7.5V22.8075L7.43375 22.7413L5.945 21.25H5V32.5H30V8.2425L29.6488 7.85125L22.1488 0.35125L21.7575 0H5ZM22.5 4.2975L25.7038 7.5H22.5V4.29625V4.2975ZM11.2113 9.23375L8.29125 16.5238L8.0175 16.25H0V18.75H6.9825L9.20375 20.9762L11.2887 15.7662L15.0387 24.5163L17.6262 18.0475L17.9787 18.75H20.3375C20.6127 19.2266 21.0374 19.5991 21.5459 19.8097C22.0543 20.0203 22.618 20.0573 23.1496 19.9148C23.6812 19.7724 24.1509 19.4585 24.4859 19.0219C24.821 18.5853 25.0026 18.0503 25.0026 17.5C25.0026 16.9497 24.821 16.4147 24.4859 15.9781C24.1509 15.5415 23.6812 15.2276 23.1496 15.0852C22.618 14.9427 22.0543 14.9797 21.5459 15.1903C21.0374 15.4009 20.6127 15.7734 20.3375 16.25H19.5213L17.3725 11.9525L14.96 17.9837L11.21 9.23375H11.2113Z" fill="#FF2156"/>
</svg>
