<svg width="158" height="52" viewBox="0 0 158 52" fill="none" xmlns="http://www.w3.org/2000/svg">
<rect width="158" height="52" rx="10" fill="#FF2156"/>
<path d="M74.6791 32L72.1191 27.552H70.7271V32H68.9031V20.88H72.7431C73.5965 20.88 74.3165 21.0293 74.9031 21.328C75.5005 21.6267 75.9431 22.0267 76.2311 22.528C76.5298 23.0293 76.6791 23.5893 76.6791 24.208C76.6791 24.9333 76.4658 25.5947 76.0391 26.192C75.6231 26.7787 74.9778 27.1787 74.1031 27.392L76.8551 32H74.6791ZM70.7271 26.096H72.7431C73.4258 26.096 73.9378 25.9253 74.2791 25.584C74.6311 25.2427 74.8071 24.784 74.8071 24.208C74.8071 23.632 74.6365 23.184 74.2951 22.864C73.9538 22.5333 73.4365 22.368 72.7431 22.368H70.7271V26.096ZM87.0925 27.376C87.0925 27.7067 87.0712 28.0053 87.0285 28.272H80.2925C80.3458 28.976 80.6072 29.5413 81.0765 29.968C81.5458 30.3947 82.1218 30.608 82.8045 30.608C83.7858 30.608 84.4792 30.1973 84.8845 29.376H86.8525C86.5858 30.1867 86.1005 30.8533 85.3965 31.376C84.7032 31.888 83.8392 32.144 82.8045 32.144C81.9618 32.144 81.2045 31.9573 80.5325 31.584C79.8712 31.2 79.3485 30.6667 78.9645 29.984C78.5912 29.2907 78.4045 28.4907 78.4045 27.584C78.4045 26.6773 78.5858 25.8827 78.9485 25.2C79.3218 24.5067 79.8392 23.9733 80.5005 23.6C81.1725 23.2267 81.9405 23.04 82.8045 23.04C83.6365 23.04 84.3778 23.2213 85.0285 23.584C85.6792 23.9467 86.1858 24.4587 86.5485 25.12C86.9112 25.7707 87.0925 26.5227 87.0925 27.376ZM85.1885 26.8C85.1778 26.128 84.9378 25.5893 84.4685 25.184C83.9992 24.7787 83.4178 24.576 82.7245 24.576C82.0952 24.576 81.5565 24.7787 81.1085 25.184C80.6605 25.5787 80.3938 26.1173 80.3085 26.8H85.1885ZM88.2795 27.552C88.2795 26.6667 88.4608 25.8827 88.8235 25.2C89.1968 24.5173 89.6982 23.9893 90.3275 23.616C90.9675 23.232 91.6768 23.04 92.4555 23.04C93.1382 23.04 93.7408 23.1787 94.2635 23.456C94.7968 23.7333 95.2075 24.0693 95.4955 24.464V23.184H97.3355V36.192H95.4955V30.72C95.2075 31.1147 94.7915 31.4507 94.2475 31.728C93.7035 32.0053 93.0848 32.144 92.3915 32.144C91.6342 32.144 90.9408 31.952 90.3115 31.568C89.6928 31.1733 89.1968 30.6293 88.8235 29.936C88.4608 29.232 88.2795 28.4373 88.2795 27.552ZM95.4955 27.584C95.4955 26.976 95.3675 26.448 95.1115 26C94.8662 25.552 94.5408 25.2107 94.1355 24.976C93.7302 24.7413 93.2928 24.624 92.8235 24.624C92.3542 24.624 91.9168 24.7413 91.5115 24.976C91.1062 25.2 90.7755 25.536 90.5195 25.984C90.2742 26.4213 90.1515 26.944 90.1515 27.552C90.1515 28.16 90.2742 28.6933 90.5195 29.152C90.7755 29.6107 91.1062 29.9627 91.5115 30.208C91.9275 30.4427 92.3648 30.56 92.8235 30.56C93.2928 30.56 93.7302 30.4427 94.1355 30.208C94.5408 29.9733 94.8662 29.632 95.1115 29.184C95.3675 28.7253 95.4955 28.192 95.4955 27.584ZM107.715 23.184V32H105.891V30.96C105.603 31.3227 105.225 31.6107 104.755 31.824C104.297 32.0267 103.806 32.128 103.283 32.128C102.59 32.128 101.966 31.984 101.411 31.696C100.867 31.408 100.435 30.9813 100.115 30.416C99.8059 29.8507 99.6513 29.168 99.6513 28.368V23.184H101.459V28.096C101.459 28.8853 101.657 29.4933 102.051 29.92C102.446 30.336 102.985 30.544 103.667 30.544C104.35 30.544 104.889 30.336 105.283 29.92C105.689 29.4933 105.891 28.8853 105.891 28.096V23.184H107.715ZM118.202 27.376C118.202 27.7067 118.181 28.0053 118.138 28.272H111.402C111.455 28.976 111.717 29.5413 112.186 29.968C112.655 30.3947 113.231 30.608 113.914 30.608C114.895 30.608 115.589 30.1973 115.994 29.376H117.962C117.695 30.1867 117.21 30.8533 116.506 31.376C115.813 31.888 114.949 32.144 113.914 32.144C113.071 32.144 112.314 31.9573 111.642 31.584C110.981 31.2 110.458 30.6667 110.074 29.984C109.701 29.2907 109.514 28.4907 109.514 27.584C109.514 26.6773 109.695 25.8827 110.058 25.2C110.431 24.5067 110.949 23.9733 111.61 23.6C112.282 23.2267 113.05 23.04 113.914 23.04C114.746 23.04 115.487 23.2213 116.138 23.584C116.789 23.9467 117.295 24.4587 117.658 25.12C118.021 25.7707 118.202 26.5227 118.202 27.376ZM116.298 26.8C116.287 26.128 116.047 25.5893 115.578 25.184C115.109 24.7787 114.527 24.576 113.834 24.576C113.205 24.576 112.666 24.7787 112.218 25.184C111.77 25.5787 111.503 26.1173 111.418 26.8H116.298ZM123.197 32.144C122.504 32.144 121.88 32.0213 121.325 31.776C120.781 31.52 120.349 31.1787 120.029 30.752C119.709 30.3147 119.538 29.8293 119.517 29.296H121.405C121.437 29.6693 121.613 29.984 121.933 30.24C122.264 30.4853 122.674 30.608 123.165 30.608C123.677 30.608 124.072 30.512 124.349 30.32C124.637 30.1173 124.781 29.8613 124.781 29.552C124.781 29.2213 124.621 28.976 124.301 28.816C123.992 28.656 123.496 28.48 122.813 28.288C122.152 28.1067 121.613 27.9307 121.197 27.76C120.781 27.5893 120.418 27.328 120.109 26.976C119.81 26.624 119.661 26.16 119.661 25.584C119.661 25.1147 119.8 24.688 120.077 24.304C120.354 23.9093 120.749 23.6 121.261 23.376C121.784 23.152 122.381 23.04 123.053 23.04C124.056 23.04 124.861 23.296 125.469 23.808C126.088 24.3093 126.418 24.9973 126.461 25.872H124.637C124.605 25.4773 124.445 25.1627 124.157 24.928C123.869 24.6933 123.48 24.576 122.989 24.576C122.509 24.576 122.141 24.6667 121.885 24.848C121.629 25.0293 121.501 25.2693 121.501 25.568C121.501 25.8027 121.586 26 121.757 26.16C121.928 26.32 122.136 26.448 122.381 26.544C122.626 26.6293 122.989 26.7413 123.469 26.88C124.109 27.0507 124.632 27.2267 125.037 27.408C125.453 27.5787 125.81 27.8347 126.109 28.176C126.408 28.5173 126.562 28.9707 126.573 29.536C126.573 30.0373 126.434 30.4853 126.157 30.88C125.88 31.2747 125.485 31.584 124.973 31.808C124.472 32.032 123.88 32.144 123.197 32.144ZM130.672 24.672V29.552C130.672 29.8827 130.746 30.1227 130.896 30.272C131.056 30.4107 131.322 30.48 131.696 30.48H132.816V32H131.376C130.554 32 129.925 31.808 129.488 31.424C129.05 31.04 128.832 30.416 128.832 29.552V24.672H127.792V23.184H128.832V20.992H130.672V23.184H132.816V24.672H130.672Z" fill="white"/>
<g clip-path="url(#clip0_120_26)">
<path d="M46.308 36.5581H46.2835C46.087 36.5581 45.9275 36.4926 45.8047 36.3617C45.6819 36.2307 45.6123 36.0588 45.596 35.846C45.5796 35.6169 45.5264 35.3181 45.4364 34.9498C45.3463 34.5815 45.0599 33.9882 44.577 33.1697C44.0941 32.3513 43.468 31.6228 42.6987 30.9844C41.9293 30.346 40.763 29.7731 39.1998 29.2657C37.6365 28.7582 35.8237 28.5045 33.7612 28.5045V33.0224C33.7612 33.1042 33.7489 33.1779 33.7243 33.2434C33.6998 33.3088 33.6711 33.3743 33.6384 33.4398C33.6057 33.5053 33.5606 33.5626 33.5033 33.6117C33.4461 33.6608 33.3847 33.7017 33.3192 33.7344C33.0082 33.8818 32.7299 33.849 32.4844 33.6362L22.2946 25.1898C22.1964 25.1079 22.1228 25.0138 22.0737 24.9074C22.0246 24.801 22 24.6905 22 24.576C22 24.3304 22.0982 24.1258 22.2946 23.9621L32.4844 15.6139C32.7299 15.4011 33.0041 15.3643 33.3069 15.5034C33.6097 15.6425 33.7612 15.884 33.7612 16.2277V20.6228C34.4159 20.6556 35.0461 20.7088 35.6518 20.7824C36.2574 20.8561 36.8467 20.9543 37.4196 21.0771C37.9926 21.1998 38.5409 21.3513 39.0647 21.5313C39.5885 21.7114 40.0878 21.9201 40.5625 22.1574C41.0372 22.3948 41.4873 22.6526 41.9129 22.9309C42.3385 23.2091 42.7396 23.5161 43.1161 23.8516C43.4926 24.1872 43.8445 24.5432 44.1719 24.9197C44.8757 25.7382 45.4527 26.6753 45.9029 27.7311C46.353 28.7869 46.66 29.7404 46.8237 30.5916C46.9873 31.4428 47.0856 32.3103 47.1183 33.1943C47.151 34.0782 47.1551 34.7002 47.1306 35.0603C47.106 35.4204 47.0774 35.6987 47.0446 35.8952C47.0119 36.0916 46.9301 36.2512 46.7991 36.3739C46.6681 36.4967 46.5045 36.5581 46.308 36.5581ZM32.9754 26.9331C34.2522 26.9331 35.4308 26.9986 36.5112 27.1295C37.5915 27.2605 38.5409 27.4528 39.3594 27.7065C40.1778 27.9603 40.9103 28.2385 41.5569 28.5414C42.2035 28.8442 42.7805 29.1961 43.2879 29.5972C43.7954 29.9982 44.221 30.3788 44.5647 30.7389C44.9085 31.099 45.2359 31.5001 45.5469 31.942C45.2359 29.5685 44.3765 27.5715 42.9687 25.951C40.8244 23.4465 37.4933 22.1943 32.9754 22.1943C32.7626 22.1943 32.5785 22.1165 32.423 21.961C32.2675 21.8055 32.1897 21.6213 32.1897 21.4085V17.8728L24.0134 24.576L32.1897 31.3527V27.7188C32.1897 27.506 32.2634 27.3178 32.4107 27.1541C32.4598 27.105 32.5171 27.064 32.5826 27.0313C32.6481 26.9986 32.7135 26.974 32.779 26.9577C32.8445 26.9413 32.91 26.9331 32.9754 26.9331Z" fill="white"/>
</g>
<defs>
<clipPath id="clip0_120_26">
<rect width="25.1429" height="22" fill="white" transform="translate(22 15)"/>
</clipPath>
</defs>
</svg>
